#!OML:ASF C:\Vicon Data\Big\jianyuan-13\jianyuan\Session 1\Capture.male.ASF
:FULLY-SPECIFIED
:DEGREES
70
root -8.902245 18.176646 -17.237790 5.487738 5.365485 0.763666
lowerback -6.847676 1.930773 -1.317138 
upperback 3.086348 2.705252 0.118027 
thorax 7.008150 1.264998 1.207475 
lowerneck -2.358160 -3.926645 3.163871 
upperneck 1.528627 -5.294343 -2.218801 
head 0.717068 -2.652665 -1.275508 
rclavicle 0.000000 0.000000 
rhumerus -23.493452 -3.245373 -87.183558 
rradius 51.876295 
rwrist 12.546072 
rhand -18.439292 -19.194053 
rfingers 0.000000 
rthumb 7.846373 -49.028484 
lclavicle 0.000000 0.000000 
lhumerus -42.230303 32.243666 68.981706 
lradius 27.959487 
lwrist -50.713403 
lhand -22.553482 2.234125 
lfingers 0.000000 
lthumb 3.874278 32.178642 
rfemur -15.161885 4.022252 24.625702 
rtibia 29.941470 
rfoot -18.373020 -5.067194 
rtoes -27.715208 
lfemur -58.548817 6.721953 -20.210114 
ltibia 92.215560 
lfoot -7.527943 -2.696190 
ltoes -38.184253 
71
root -8.901970 18.175511 -17.125109 5.360719 5.091453 0.836584
lowerback -6.852295 2.040044 -1.343424 
upperback 3.118127 2.858972 0.050632 
thorax 7.042774 1.340378 1.172009 
lowerneck -2.246873 -4.032374 3.162269 
upperneck 1.410906 -5.433223 -2.204616 
head 0.658085 -2.721996 -1.266451 
rclavicle 0.000000 0.000000 
rhumerus -22.739038 -3.160241 -87.302307 
rradius 52.149731 
rwrist 12.375401 
rhand -18.407959 -19.301409 
rfingers 0.000000 
rthumb 7.876607 -49.134697 
lclavicle 0.000000 0.000000 
lhumerus -43.088982 32.730569 67.691344 
lradius 27.589720 
lwrist -51.558645 
lhand -22.360021 2.191331 
lfingers 0.000000 
lthumb 4.061120 32.132347 
rfemur -14.471541 4.121678 24.596425 
rtibia 29.703798 
rfoot -18.597882 -4.947127 
rtoes -27.713436 
lfemur -59.123781 6.505177 -20.419609 
ltibia 91.186580 
lfoot -7.954881 -2.768608 
ltoes -37.161140 
72
root -8.907131 18.170241 -17.021388 5.425567 4.949069 0.862133
lowerback -6.914135 2.069246 -1.361414 
upperback 3.060065 2.901921 0.022228 
thorax 7.016112 1.361860 1.158903 
lowerneck -2.135879 -4.065947 2.971622 
upperneck 1.275949 -5.473089 -2.034599 
head 0.605614 -2.741293 -1.175694 
rclavicle 0.000000 0.000000 
rhumerus -22.140066 -2.833373 -87.358978 
rradius 52.497070 
rwrist 12.201112 
rhand -18.416867 -19.097674 
rfingers 0.000000 
rthumb 7.868011 -48.931257 
lclavicle 0.000000 0.000000 
lhumerus -44.022024 33.208834 66.452992 
lradius 27.272263 
lwrist -52.352505 
lhand -22.113800 2.101437 
lfingers 0.000000 
lthumb 4.298904 32.037816 
rfemur -14.048307 4.045082 24.661789 
rtibia 29.508419 
rfoot -18.780721 -4.814141 
rtoes -27.617960 
lfemur -59.934863 6.213915 -20.499839 
ltibia 90.098854 
lfoot -8.195459 -2.766824 
ltoes -37.908764 
73
root -8.911178 18.165457 -16.914513 5.281630 4.660735 0.902453
lowerback -6.824771 2.137888 -1.373226 
upperback 3.093519 2.997276 -0.028853 
thorax 6.999881 1.409626 1.121023 
lowerneck -2.084523 -4.085813 2.894546 
upperneck 1.161715 -5.497576 -1.993018 
head 0.564021 -2.753813 -1.146338 
rclavicle 0.000000 0.000000 
rhumerus -21.375077 -2.712554 -87.528901 
rradius 52.648827 
rwrist 12.199773 
rhand -18.390153 -19.043004 
rfingers 0.000000 
rthumb 7.893758 -48.875615 
lclavicle 0.000000 0.000000 
lhumerus -44.617321 33.513397 65.457009 
lradius 27.294671 
lwrist -49.322547 
lhand -20.157423 0.856339 
lfingers 0.000000 
lthumb 6.187812 30.743811 
rfemur -13.398805 4.090539 24.696720 
rtibia 29.302420 
rfoot -18.965217 -4.659678 
rtoes -27.535241 
lfemur -60.353902 6.036487 -20.583085 
ltibia 88.852453 
lfoot -8.573762 -2.719207 
ltoes -37.738681 
74
root -8.913618 18.160383 -16.807318 5.177010 4.336651 0.934697
lowerback -6.754803 2.245284 -1.378310 
upperback 3.093563 3.143952 -0.084893 
thorax 6.958772 1.483495 1.080363 
lowerneck -1.980438 -4.131690 2.782843 
upperneck 1.048017 -5.555779 -1.846790 
head 0.516737 -2.782133 -1.077413 
rclavicle 0.000000 0.000000 
rhumerus -20.707202 -2.558413 -87.607758 
rradius 52.848457 
rwrist 11.910188 
rhand -18.247606 -18.935538 
rfingers 0.000000 
rthumb 8.031389 -48.762976 
lclavicle 0.000000 0.000000 
lhumerus -45.416355 33.935698 64.265657 
lradius 27.155763 
lwrist -48.543875 
lhand -19.198459 0.281336 
lfingers 0.000000 
lthumb 7.113556 30.141779 
rfemur -12.806160 4.172319 24.728659 
rtibia 29.101332 
rfoot -19.070444 -4.512741 
rtoes -27.445860 
lfemur -60.710325 5.838735 -20.636949 
ltibia 87.476146 
lfoot -8.779839 -2.705287 
ltoes -38.514514 
75
root -8.912159 18.155524 -16.699082 5.087703 4.194070 0.945068
lowerback -6.699020 2.322425 -1.283294 
upperback 3.083704 3.242917 -0.176138 
thorax 6.924296 1.539306 0.941416 
lowerneck -1.918976 -4.193860 2.927318 
upperneck 0.942727 -5.641016 -1.877399 
head 0.467273 -2.824692 -1.107898 
rclavicle 0.000000 0.000000 
rhumerus -20.214119 -2.528391 -87.731160 
rradius 53.195608 
rwrist 11.870138 
rhand -18.292146 -18.951249 
rfingers 0.000000 
rthumb 7.988400 -48.780222 
lclavicle 0.000000 0.000000 
lhumerus -46.353281 34.405888 62.785710 
lradius 26.742438 
lwrist -50.106912 
lhand -19.130380 0.071736 
lfingers 0.000000 
lthumb 7.179281 29.929993 
rfemur -12.221074 4.290464 24.787454 
rtibia 28.910639 
rfoot -19.235206 -4.547469 
rtoes -27.050677 
lfemur -61.024384 5.459598 -20.642718 
ltibia 85.985058 
lfoot -9.176458 -2.744686 
ltoes -37.763126 
76
root -8.914712 18.153557 -16.591252 4.976916 3.816790 1.024629
lowerback -6.615216 2.457852 -1.332184 
upperback 3.089703 3.432607 -0.255801 
thorax 6.880527 1.632956 0.904864 
lowerneck -1.937335 -4.240961 2.855403 
upperneck 0.943940 -5.703375 -1.809638 
head 0.472937 -2.855647 -1.075626 
rclavicle 0.000000 0.000000 
rhumerus -19.578163 -2.521564 -87.880821 
rradius 53.344331 
rwrist 12.032398 
rhand -18.175185 -19.025945 
rfingers 0.000000 
rthumb 8.101226 -48.850624 
lclavicle 0.000000 0.000000 
lhumerus -47.266774 34.844725 61.406891 
lradius 26.405926 
lwrist -51.309181 
lhand -18.999725 -0.061059 
lfingers 0.000000 
lthumb 7.305441 29.792850 
rfemur -11.601520 4.655008 24.766015 
rtibia 28.708710 
rfoot -19.381565 -4.561000 
rtoes -26.709881 
lfemur -61.188033 5.315149 -20.672855 
ltibia 84.393225 
lfoot -9.435170 -2.837306 
ltoes -38.088470 
77
root -8.916987 18.146102 -16.480896 4.922290 3.544760 1.037119
lowerback -6.608117 2.541677 -1.305992 
upperback 3.065095 3.546391 -0.327640 
thorax 6.854161 1.692287 0.828128 
lowerneck -1.985721 -4.302248 3.067354 
upperneck 0.979847 -5.789062 -2.017531 
head 0.478399 -2.899463 -1.178312 
rclavicle 0.000000 0.000000 
rhumerus -19.121602 -2.260718 -88.057524 
rradius 53.587099 
rwrist 11.806964 
rhand -18.273461 -19.221430 
rfingers 0.000000 
rthumb 8.006408 -49.049841 
lclavicle 0.000000 0.000000 
lhumerus -48.166086 35.117407 60.159139 
lradius 26.189777 
lwrist -52.024269 
lhand -18.928340 0.027805 
lfingers 0.000000 
lthumb 7.374303 29.879296 
rfemur -11.052952 4.805884 24.822610 
rtibia 28.550539 
rfoot -19.565201 -4.380426 
rtoes -26.212868 
lfemur -61.328320 5.022849 -20.616232 
ltibia 82.695304 
lfoot -9.742901 -2.797069 
ltoes -37.792366 
